<svg xmlns="http://www.w3.org/2000/svg" width="10" height="12" viewBox="0 0 10 12" fill="none">
    <path d="M1.78259 3.67343C1.72806 4.28148 1.6898 5.35755 2.0332 5.81558C2.0332 5.81558 1.87155 4.6335 3.32072 3.1504C3.90421 2.55336 4.03909 1.7413 3.83534 1.13226C3.7196 0.787239 3.5082 0.502219 3.32455 0.303206C3.21741 0.186198 3.29967 -0.00681521 3.45559 0.000185269C4.39875 0.0441883 5.92732 0.318207 6.57681 2.02232C6.86187 2.77037 6.88291 3.54343 6.74708 4.32948C6.66099 4.83151 6.35489 5.94759 7.05318 6.0846C7.55154 6.1826 7.79259 5.76858 7.90068 5.47056C7.94564 5.34655 8.10155 5.31555 8.18573 5.41455C9.02749 6.41562 9.09924 7.5947 8.92514 8.60977C8.58844 10.5719 6.68777 12 4.79954 12C2.44069 12 0.562986 10.5889 0.0761023 8.03473C-0.11999 7.00366 -0.020509 4.96352 1.5004 3.52342C1.61328 3.41542 1.79789 3.51142 1.78259 3.67343Z" fill="url(#paint0_radial_4972_53378)"/>
    <path d="M5.65763 7.33969C4.78813 6.16961 5.17744 4.83452 5.39075 4.30248C5.41945 4.23247 5.34292 4.16647 5.28266 4.20947C4.90865 4.47549 4.14246 5.10153 3.78566 5.98259C3.3026 7.17367 3.33704 7.75671 3.62305 8.46876C3.79523 8.89779 3.59531 8.9888 3.49487 9.0048C3.3973 9.0208 3.30739 8.95279 3.23565 8.88179C3.02999 8.67678 2.88172 8.40976 2.81094 8.12174C2.79563 8.05973 2.71815 8.04273 2.68276 8.09374C2.41493 8.48076 2.27623 9.10181 2.26953 9.54083C2.24849 10.8979 3.32078 11.998 4.61786 11.998C6.2526 11.998 7.44351 10.1079 6.50418 8.52777C6.23156 8.06774 5.9752 7.76671 5.65763 7.33969Z" fill="url(#paint1_radial_4972_53378)"/>
    <defs>
        <radialGradient id="paint0_radial_4972_53378" cx="0" cy="0" r="1" gradientUnits="userSpaceOnUse" gradientTransform="translate(4.33237 12.0311) rotate(-179.74) scale(6.75207 11.5828)">
            <stop offset="0.3144" stop-color="#FF9800"/>
            <stop offset="0.6616" stop-color="#FF6D00"/>
            <stop offset="0.9715" stop-color="#F44336"/>
        </radialGradient>
        <radialGradient id="paint1_radial_4972_53378" cx="0" cy="0" r="1" gradientUnits="userSpaceOnUse" gradientTransform="translate(4.70776 5.00342) rotate(90.5535) scale(7.3861 5.31676)">
            <stop offset="0.2141" stop-color="#FFF176"/>
            <stop offset="0.3275" stop-color="#FFF27D"/>
            <stop offset="0.4868" stop-color="#FFF48F"/>
            <stop offset="0.6722" stop-color="#FFF7AD"/>
            <stop offset="0.7931" stop-color="#FFF9C4"/>
            <stop offset="0.8221" stop-color="#FFF8BD" stop-opacity="0.804"/>
            <stop offset="0.8627" stop-color="#FFF6AB" stop-opacity="0.529"/>
            <stop offset="0.9101" stop-color="#FFF38D" stop-opacity="0.2088"/>
            <stop offset="0.9409" stop-color="#FFF176" stop-opacity="0"/>
        </radialGradient>
    </defs>
</svg>