<svg xmlns="http://www.w3.org/2000/svg" width="12" height="30" viewBox="0 0 12 30"><title>Page 1 Copy</title><g fill="none" fill-rule="evenodd"><path d="M.587 6.284a.66.66 0 0 0 0 .88.529.529 0 0 0 .792 0l4.056-4.462v9.263c0 .343.249.616.561.616.312 0 .568-.273.568-.616V2.702l4.049 4.462a.538.538 0 0 0 .8 0 .66.66 0 0 0 0-.88L6.396.765a.517.517 0 0 0-.792 0L.587 6.284z" fill="#1E201D"/><path d="M.587 23.284a.66.66 0 0 0 0 .88.529.529 0 0 0 .792 0l4.056-4.462v9.263c0 .343.249.616.561.616.312 0 .568-.273.568-.616v-9.263l4.049 4.462a.538.538 0 0 0 .8 0 .66.66 0 0 0 0-.88l-5.017-5.519a.517.517 0 0 0-.792 0L.587 23.284z" fill="#F27A1A"/></g></svg>